<?xml version="1.0" encoding="UTF-8" standalone="no"?>
<!-- Created with Inkscape (http://www.inkscape.org/) -->

<svg
   width="512"
   height="512"
   viewBox="0 0 512 512"
   version="1.1"
   id="svg1"
   sodipodi:docname="logo.svg"
   inkscape:version="1.4.3 (0d15f75, 2025-12-25)"
   xmlns:inkscape="http://www.inkscape.org/namespaces/inkscape"
   xmlns:sodipodi="http://sodipodi.sourceforge.net/DTD/sodipodi-0.dtd"
   xmlns:xlink="http://www.w3.org/1999/xlink"
   xmlns="http://www.w3.org/2000/svg"
   xmlns:svg="http://www.w3.org/2000/svg">
  <sodipodi:namedview
     id="namedview1"
     pagecolor="#ffffff"
     bordercolor="#000000"
     borderopacity="0.25"
     inkscape:showpageshadow="2"
     inkscape:pageopacity="0.0"
     inkscape:pagecheckerboard="0"
     inkscape:deskcolor="#d1d1d1"
     inkscape:document-units="px"
     showgrid="false"
     showguides="true"
     inkscape:zoom="1"
     inkscape:cx="256"
     inkscape:cy="255.5"
     inkscape:window-width="1920"
     inkscape:window-height="1009"
     inkscape:window-x="-8"
     inkscape:window-y="-8"
     inkscape:window-maximized="1"
     inkscape:current-layer="layer1" />
  <defs
     id="defs1">
    <linearGradient
       id="linearGradient46"
       inkscape:collect="always">
      <stop
         style="stop-color:#fcc776;stop-opacity:1;"
         offset="0"
         id="stop44" />
      <stop
         style="stop-color:#ff6d2d;stop-opacity:0;"
         offset="1"
         id="stop46" />
    </linearGradient>
    <linearGradient
       id="linearGradient38"
       inkscape:collect="always">
      <stop
         style="stop-color:#92fd81;stop-opacity:1;"
         offset="0"
         id="stop38" />
      <stop
         style="stop-color:#77fcfd;stop-opacity:1;"
         offset="0.69999999"
         id="stop40" />
      <stop
         style="stop-color:#59fffc;stop-opacity:1;"
         offset="1"
         id="stop39" />
    </linearGradient>
    <inkscape:path-effect
       effect="spiro"
       id="path-effect36"
       is_visible="true"
       lpeversion="1" />
    <inkscape:path-effect
       effect="bspline"
       id="path-effect27"
       is_visible="true"
       lpeversion="1.3"
       weight="33.333333"
       steps="2"
       helper_size="0"
       apply_no_weight="true"
       apply_with_weight="true"
       only_selected="false"
       uniform="false" />
    <inkscape:path-effect
       effect="spiro"
       id="path-effect21"
       is_visible="true"
       lpeversion="1" />
    <linearGradient
       id="linearGradient18"
       inkscape:collect="always">
      <stop
         style="stop-color:#fee19f;stop-opacity:1;"
         offset="0"
         id="stop17" />
      <stop
         style="stop-color:#8edef5;stop-opacity:1;"
         offset="1"
         id="stop18" />
    </linearGradient>
    <inkscape:path-effect
       effect="spiro"
       id="path-effect17"
       is_visible="true"
       lpeversion="1" />
    <linearGradient
       id="linearGradient10"
       inkscape:collect="always">
      <stop
         style="stop-color:#b1fe9f;stop-opacity:1;"
         offset="0"
         id="stop10" />
      <stop
         style="stop-color:#9af58e;stop-opacity:1;"
         offset="1"
         id="stop11" />
    </linearGradient>
    <inkscape:path-effect
       effect="bspline"
       id="path-effect16"
       is_visible="true"
       lpeversion="1.3"
       weight="33.333333"
       steps="2"
       helper_size="0"
       apply_no_weight="true"
       apply_with_weight="true"
       only_selected="false"
       uniform="false" />
    <inkscape:path-effect
       effect="spiro"
       id="path-effect15"
       is_visible="true"
       lpeversion="1" />
    <radialGradient
       inkscape:collect="always"
       xlink:href="#linearGradient10"
       id="radialGradient11"
       cx="-840.04286"
       cy="364.14148"
       fx="-840.04286"
       fy="364.14148"
       r="157.88796"
       gradientTransform="matrix(1,0,0,0.83736885,0,59.220747)"
       gradientUnits="userSpaceOnUse" />
    <radialGradient
       inkscape:collect="always"
       xlink:href="#linearGradient18"
       id="radialGradient17"
       gradientUnits="userSpaceOnUse"
       gradientTransform="matrix(1.6338796,0,0,1.3681599,585.8099,-81.027386)"
       cx="-912.52252"
       cy="285.38406"
       fx="-912.52252"
       fy="285.38406"
       r="157.88796" />
    <clipPath
       clipPathUnits="userSpaceOnUse"
       id="clipPath21">
      <path
         style="fill:url(#radialGradient21);fill-opacity:1"
         d="m -840.04286,231.93102 c 11.91459,8.28041 24.23913,15.97091 36.91338,23.03392 24.74019,13.78703 51.01506,25.31692 73.11688,43.02762 24.00491,19.2357 42.67259,46.43269 46.94745,76.89535 3.75648,26.7687 -4.22277,55.10699 -21.92031,75.53911 -10.20872,11.78614 -23.33465,20.8414 -37.47581,27.41094 -14.14115,6.56953 -29.30437,10.72455 -44.62937,13.60125 -34.8954,6.55031 -71.00904,6.55031 -105.90444,0 -15.325,-2.8767 -30.48822,-7.03172 -44.62937,-13.60125 -14.14116,-6.56954 -27.26709,-15.6248 -37.47581,-27.41094 -17.69754,-20.43212 -25.67684,-48.77041 -21.92031,-75.53911 4.27486,-30.46266 22.94254,-57.65965 46.94745,-76.89535 22.10182,-17.7107 48.37669,-29.24059 73.11688,-43.02762 12.67425,-7.06301 24.99879,-14.75351 36.91338,-23.03392 z"
         id="path21"
         sodipodi:nodetypes="caaaaaaaaaac"
         transform="matrix(1.209009,0,0,1.209009,1271.6194,-175.10321)"
         inkscape:path-effect="#path-effect21"
         inkscape:original-d="m -840.04286,231.93102 c 0,0 24.51024,15.5164 36.91338,23.03392 24.18397,14.65786 52.95883,23.19406 73.11688,43.02762 21.40699,21.0624 42.96946,47.12859 46.94745,76.89535 3.47292,25.9874 -5.1307,55.4017 -21.92031,75.53911 -19.59082,23.49718 -52.32941,33.98927 -82.10518,41.01219 -34.35873,8.10385 -71.54571,8.10385 -105.90444,0 -29.77577,-7.02292 -62.51436,-17.51501 -82.10518,-41.01219 -16.78961,-20.13741 -25.39324,-49.55171 -21.92031,-75.53911 3.97799,-29.76676 25.54046,-55.83295 46.94745,-76.89535 20.15805,-19.83356 48.93291,-28.36976 73.11688,-43.02762 12.40314,-7.51752 36.91338,-23.03392 36.91338,-23.03392 z" />
    </clipPath>
    <radialGradient
       inkscape:collect="always"
       xlink:href="#linearGradient10"
       id="radialGradient21"
       gradientUnits="userSpaceOnUse"
       gradientTransform="matrix(1,0,0,0.83736885,0,59.220747)"
       cx="-840.04286"
       cy="364.14148"
       fx="-840.04286"
       fy="364.14148"
       r="157.88796" />
    <filter
       inkscape:collect="always"
       style="color-interpolation-filters:sRGB"
       id="filter21"
       x="-0.075000015"
       y="-0.074999989"
       width="1.15"
       height="1.15">
      <feGaussianBlur
         inkscape:collect="always"
         stdDeviation="16.000001"
         id="feGaussianBlur21" />
    </filter>
    <radialGradient
       inkscape:collect="always"
       xlink:href="#linearGradient38"
       id="radialGradient39"
       cx="251.40381"
       cy="63.752567"
       fx="251.40381"
       fy="63.752567"
       r="18.710945"
       gradientUnits="userSpaceOnUse"
       gradientTransform="matrix(1.2456419,0,0,1.2456419,-61.7553,-15.6603)" />
    <radialGradient
       inkscape:collect="always"
       xlink:href="#linearGradient46"
       id="radialGradient40"
       gradientUnits="userSpaceOnUse"
       cx="250.5248"
       cy="76.089882"
       fx="250.5248"
       fy="76.089882"
       r="18.710945"
       gradientTransform="matrix(1.7883082,0,0,1.7883082,-197.66829,-59.982282)" />
  </defs>
  <g
     inkscape:label="Layer 1"
     inkscape:groupmode="layer"
     id="layer1">
    <path
       style="fill:url(#radialGradient11);fill-opacity:1"
       d="m -840.04286,231.93102 c 11.91459,8.28041 24.23913,15.97091 36.91338,23.03392 24.74019,13.78703 51.01506,25.31692 73.11688,43.02762 24.00491,19.2357 42.67259,46.43269 46.94745,76.89535 3.75648,26.7687 -4.22277,55.10699 -21.92031,75.53911 -10.20872,11.78614 -23.33465,20.8414 -37.47581,27.41094 -14.14115,6.56953 -29.30437,10.72455 -44.62937,13.60125 -34.8954,6.55031 -71.00904,6.55031 -105.90444,0 -15.325,-2.8767 -30.48822,-7.03172 -44.62937,-13.60125 -14.14116,-6.56954 -27.26709,-15.6248 -37.47581,-27.41094 -17.69754,-20.43212 -25.67684,-48.77041 -21.92031,-75.53911 4.27486,-30.46266 22.94254,-57.65965 46.94745,-76.89535 22.10182,-17.7107 48.37669,-29.24059 73.11688,-43.02762 12.67425,-7.06301 24.99879,-14.75351 36.91338,-23.03392 z"
       id="path5"
       sodipodi:nodetypes="caaaaaaaaaac"
       transform="matrix(1.209009,0,0,1.209009,1271.6194,-175.10321)"
       inkscape:original-d="m -840.04286,231.93102 c 0,0 24.51024,15.5164 36.91338,23.03392 24.18397,14.65786 52.95883,23.19406 73.11688,43.02762 21.40699,21.0624 42.96946,47.12859 46.94745,76.89535 3.47292,25.9874 -5.1307,55.4017 -21.92031,75.53911 -19.59082,23.49718 -52.32941,33.98927 -82.10518,41.01219 -34.35873,8.10385 -71.54571,8.10385 -105.90444,0 -29.77577,-7.02292 -62.51436,-17.51501 -82.10518,-41.01219 -16.78961,-20.13741 -25.39324,-49.55171 -21.92031,-75.53911 3.97799,-29.76676 25.54046,-55.83295 46.94745,-76.89535 20.15805,-19.83356 48.93291,-28.36976 73.11688,-43.02762 12.40314,-7.51752 36.91338,-23.03392 36.91338,-23.03392 z"
       inkscape:path-effect="#path-effect15" />
    <path
       style="fill:#22662e;fill-opacity:1;stroke:none;stroke-width:12.3402;stroke-linecap:round;stroke-dasharray:none"
       d="m 190.23907,248.3579 c -2.73986,0 -5.47972,1.21606 -7.708,4.59242 -2.22828,3.37636 -3.945,8.91305 -4.13348,14.24419 -0.18848,5.33114 1.15128,10.45671 3.37956,13.62752 2.22829,3.17081 5.34511,4.38686 8.46192,4.38685 3.11681,0 6.23363,-1.21606 8.46191,-4.38686 2.22828,-3.17081 3.56805,-8.29639 3.37958,-13.62752 -0.18848,-5.33113 -1.90521,-10.86785 -4.13348,-14.2442 -2.22828,-3.37636 -4.96815,-4.59241 -7.70801,-4.5924 z"
       id="path16"
       inkscape:path-effect="#path-effect16"
       inkscape:original-d="m 190.23907,247.14185 c -2.73986,1.21605 -5.47972,2.43211 -8.21957,3.64816 -1.71671,5.53667 -3.43343,11.07336 -5.15015,16.61005 1.33976,5.12559 2.67952,10.25116 4.01928,15.37674 3.11681,1.21604 6.23363,2.43209 9.35044,3.64813 3.11681,-1.21605 6.23363,-2.43211 9.35043,-3.64816 1.33976,-5.12556 2.67953,-10.25114 4.0193,-15.37671 -1.71672,-5.53669 -3.43345,-11.07341 -5.15016,-16.61008 -2.73984,-1.21604 -5.47971,-2.43209 -8.21957,-3.64813 z"
       sodipodi:nodetypes="ccccccccc"
       transform="matrix(1.209009,0,0,1.209009,-53.506326,-44.352295)" />
    <path
       style="fill:#22662e;fill-opacity:1;stroke:none;stroke-width:12.3402;stroke-linecap:round;stroke-dasharray:none"
       d="m 190.23907,248.3579 c -2.73986,0 -5.47972,1.21606 -7.708,4.59242 -2.22828,3.37636 -3.945,8.91305 -4.13348,14.24419 -0.18848,5.33114 1.15128,10.45671 3.37956,13.62752 2.22829,3.17081 5.34511,4.38686 8.46192,4.38685 3.11681,0 6.23363,-1.21606 8.46191,-4.38686 2.22828,-3.17081 3.56805,-8.29639 3.37958,-13.62752 -0.18848,-5.33113 -1.90521,-10.86785 -4.13348,-14.2442 -2.22828,-3.37636 -4.96815,-4.59241 -7.70801,-4.5924 z"
       id="path25"
       inkscape:path-effect="#path-effect27"
       inkscape:original-d="m 190.23907,247.14185 c -2.73986,1.21605 -5.47972,2.43211 -8.21957,3.64816 -1.71671,5.53667 -3.43343,11.07336 -5.15015,16.61005 1.33976,5.12559 2.67952,10.25116 4.01928,15.37674 3.11681,1.21604 6.23363,2.43209 9.35044,3.64813 3.11681,-1.21605 6.23363,-2.43211 9.35043,-3.64816 1.33976,-5.12556 2.67953,-10.25114 4.0193,-15.37671 -1.71672,-5.53669 -3.43345,-11.07341 -5.15016,-16.61008 -2.73984,-1.21604 -5.47971,-2.43209 -8.21957,-3.64813 z"
       sodipodi:nodetypes="ccccccccc"
       transform="matrix(-1.209009,0,0,1.209009,565.50634,-44.266937)" />
    <path
       style="opacity:1;fill:none;fill-opacity:1;stroke:#22662e;stroke-width:12.3402;stroke-linecap:round;stroke-opacity:1"
       d="m 229.76237,340.82547 c 8.55603,2.22706 17.39653,3.35876 26.23765,3.35876 8.84112,0 17.68163,-1.1317 26.23766,-3.35876"
       id="path36"
       inkscape:path-effect="#path-effect36"
       inkscape:original-d="m 229.76237,340.82547 c 9.7634,1.88561 17.33077,1.47314 26.23765,3.35876 8.90688,1.88562 17.93828,-1.70884 26.23766,-3.35876"
       sodipodi:nodetypes="csc"
       transform="translate(0,-18)" />
    <path
       style="display:inline;mix-blend-mode:hard-light;fill:url(#radialGradient17);fill-opacity:1"
       d="m -840.04286,231.93102 c 11.91459,8.28041 24.23913,15.97091 36.91338,23.03392 24.74019,13.78703 51.01506,25.31692 73.11688,43.02762 24.00491,19.2357 42.67259,46.43269 46.94745,76.89535 3.75648,26.7687 -4.22277,55.10699 -21.92031,75.53911 -10.20872,11.78614 -23.33465,20.8414 -37.47581,27.41094 -14.14115,6.56953 -29.30437,10.72455 -44.62937,13.60125 -34.8954,6.55031 -71.00904,6.55031 -105.90444,0 -15.325,-2.8767 -30.48822,-7.03172 -44.62937,-13.60125 -14.14116,-6.56954 -27.26709,-15.6248 -37.47581,-27.41094 -17.69754,-20.43212 -25.67684,-48.77041 -21.92031,-75.53911 4.27486,-30.46266 22.94254,-57.65965 46.94745,-76.89535 22.10182,-17.7107 48.37669,-29.24059 73.11688,-43.02762 12.67425,-7.06301 24.99879,-14.75351 36.91338,-23.03392 z"
       id="path11"
       sodipodi:nodetypes="caaaaaaaaaac"
       transform="matrix(1.209009,0,0,1.209009,1271.6194,-175.10321)"
       inkscape:original-d="m -840.04286,231.93102 c 0,0 24.51024,15.5164 36.91338,23.03392 24.18397,14.65786 52.95883,23.19406 73.11688,43.02762 21.40699,21.0624 42.96946,47.12859 46.94745,76.89535 3.47292,25.9874 -5.1307,55.4017 -21.92031,75.53911 -19.59082,23.49718 -52.32941,33.98927 -82.10518,41.01219 -34.35873,8.10385 -71.54571,8.10385 -105.90444,0 -29.77577,-7.02292 -62.51436,-17.51501 -82.10518,-41.01219 -16.78961,-20.13741 -25.39324,-49.55171 -21.92031,-75.53911 3.97799,-29.76676 25.54046,-55.83295 46.94745,-76.89535 20.15805,-19.83356 48.93291,-28.36976 73.11688,-43.02762 12.40314,-7.51752 36.91338,-23.03392 36.91338,-23.03392 z"
       inkscape:path-effect="#path-effect17" />
    <path
       id="rect19"
       style="opacity:1;mix-blend-mode:overlay;fill:#02f6f3;fill-opacity:1;stroke-width:12.3402;stroke-linecap:round;filter:url(#filter21)"
       d="M 0.08007812,0 C 0.03497945,0.00455267 0,0.04350546 0,0.08984375 V 511.91016 C 0,511.95958 0.04041624,512 0.08984375,512 H 511.91016 c 0.0494,0 0.0898,-0.0404 0.0898,-0.0898 V 0.08984375 C 512,0.04041624 511.95958,0 511.91016,0 H 0.08984375 C 0.08675453,0 0.0830847,-3.0351127e-4 0.08007812,0 Z M 256.02344,112.5957 c 10.06983,6.89735 20.39131,13.42461 30.91015,19.61524 19.3541,11.47128 39.65017,21.22585 59.30664,32.15039 9.77788,5.44494 19.45326,11.25515 28.65039,17.71679 1.42987,1.00798 2.95819,2.11228 4.29883,3.09961 11.63029,8.57006 22.27171,18.51676 31.39453,29.72852 4.3212,5.30592 8.41485,11.0644 12.00391,16.98437 1.69912,2.82712 3.49169,5.97925 5.03516,9.03711 4.55949,8.91888 8.11421,18.49024 10.37695,28.16993 0.14505,0.59504 0.30228,1.35947 0.4375,1.9375 1.25776,5.88505 2.05491,11.87004 2.32812,17.88281 0.2139,4.57587 0.13265,9.38148 -0.24414,14.03125 -0.13971,1.72504 -0.33772,3.57821 -0.54492,5.21094 -1.29449,10.08548 -3.94862,19.99868 -7.90429,29.36718 -5.3921,12.84472 -13.32141,24.62851 -23.29688,34.36133 -1.90045,1.85581 -3.92168,3.70794 -5.99805,5.47461 -1.87027,1.59494 -3.68072,3.03507 -5.61914,4.50586 -2.16387,1.62833 -4.26516,3.11347 -6.5,4.5957 -4.9364,3.27128 -10.02937,6.18367 -15.29297,8.80664 -18.19881,9.06248 -37.97788,14.49259 -57.91015,18.14844 -1.86944,0.3442 -3.8715,0.68634 -5.7168,0.9961 -13.84991,2.28561 -27.83953,3.71814 -41.86523,4.2871 -7.69099,0.30672 -15.47544,0.36509 -23.22071,0.1504 -4.03629,-0.11222 -8.32557,-0.3018 -12.33007,-0.55664 -6.18164,-0.39551 -12.46718,-0.96624 -18.54688,-1.68165 -13.73813,-1.64796 -27.39572,-4.05432 -40.8125,-7.45117 -1.37882,-0.34325 -2.88732,-0.75974 -4.16992,-1.09961 -7.57364,-2.08815 -15.05471,-4.531 -22.33789,-7.48242 -3.52229,-1.41921 -7.23419,-3.06323 -10.63477,-4.72656 -14.34307,-6.99128 -27.69987,-16.26146 -38.531248,-28.03711 -0.599491,-0.65262 -1.308722,-1.45678 -1.820312,-2.0332 -3.469837,-3.99462 -6.635637,-8.25167 -9.453125,-12.73047 -0.310504,-0.50232 -0.744294,-1.19636 -0.978516,-1.58008 C 78.950835,338.10071 73.83269,322.97436 71.9375,307.4707 c -0.07071,-0.62074 -0.169626,-1.46169 -0.222656,-1.94531 -0.370075,-3.64376 -0.58935,-7.30361 -0.59375,-10.9668 -0.108879,-13.65543 2.517524,-27.27078 7.285156,-40.04882 2.373319,-6.37449 5.350116,-12.76733 8.751953,-18.75977 0.893742,-1.59098 1.798952,-3.12251 2.792969,-4.73438 4.141806,-6.72005 8.758494,-13.00337 13.871098,-18.99414 10.35932,-12.17375 22.56273,-22.7043 35.77539,-31.66992 18.78122,-12.83953 39.15543,-22.96496 59.20312,-33.59179 18.63235,-9.74363 36.80099,-20.38454 54.22852,-32.1543 0.99804,-0.66992 1.99609,-1.33985 2.99414,-2.00977 z"
       clip-path="url(#clipPath21)" />
    <circle
       style="fill:url(#radialGradient39);fill-opacity:1;stroke-width:12.3402;stroke-linecap:round"
       id="path2"
       cx="256"
       cy="67.464882"
       r="18.710945" />
    <circle
       style="mix-blend-mode:overlay;fill:url(#radialGradient40);fill-opacity:1;stroke-width:12.3402;stroke-linecap:round"
       id="circle40"
       cx="256"
       cy="67.464882"
       r="18.710945" />
  </g>
</svg>
